<?xml version="1.0"?>
<svg xmlns="http://www.w3.org/2000/svg" viewBox="0 0 512 512" width="512" height="512"><g id="outline_create" data-name="outline create"><rect x="47.015" y="72" width="65.97" height="16" transform="translate(-17.015 138.207) rotate(-75.963)"/><rect x="168" y="47.015" width="16" height="65.97" transform="translate(-14.148 45.075) rotate(-14.036)"/><path d="M463.155,92.422A8,8,0,0,0,456,88H438.129L454.86,60.116A8,8,0,0,0,448,48H408a8,8,0,0,0-7.155,4.422l-32,64A8,8,0,0,0,376,128h20.9l-20.489,61.47A8,8,0,0,0,390.4,196.8l72-96A8,8,0,0,0,463.155,92.422Zm-55.976,55.339,8.41-25.231A8,8,0,0,0,408,112H388.944l24-48h20.927L417.14,91.884A8,8,0,0,0,424,104h16Z"/><path d="M468,312a36.04,36.04,0,0,0-36,36v15.991A19.983,19.983,0,0,1,424,348V262.624A24.038,24.038,0,0,0,440,240v-8h48a8,8,0,0,0,8-8V24a8,8,0,0,0-8-8H344a8,8,0,0,0-8,8V224a8,8,0,0,0,8,8h48v8a24.038,24.038,0,0,0,16,22.624V348a36.063,36.063,0,0,0,24,33.944V444a20,20,0,0,1-40,0V380a36,36,0,0,0-72,0v16a20.023,20.023,0,0,1-20,20H224V198.948l11.562,7.708,8.876-13.312L224,179.719V96a8,8,0,0,0-.411-2.53l-24-72A8,8,0,0,0,192,16H64a8,8,0,0,0-7.589,5.47l-24,72A8,8,0,0,0,32,96v83.719L11.562,193.344l8.876,13.312L32,198.948V424c0,.047.008.094.009.141a7.578,7.578,0,0,0,.048.781c.012.111.036.22.054.33.031.2.063.4.11.593.008.031.01.064.018.095l16,64A8,8,0,0,0,56,496H200a8,8,0,0,0,7.761-6.06L222.246,432H300a36.04,36.04,0,0,0,36-36V380a20,20,0,0,1,40,0v64a36,36,0,0,0,72,0V384h20a36,36,0,0,0,0-72ZM352,32H480V216H352Zm72,200v8a8,8,0,0,1-16,0v-8ZM88,224h80V354.919a99.92,99.92,0,0,1-80,0Zm96-5.927,24-43.2V280H184ZM171.293,208H84.707L51.294,147.856a204.594,204.594,0,0,1,153.412,0ZM72,218.073V280H48V174.873ZM48,296H72v61.706l-24,38.4Zm35.057,74.2a115.955,115.955,0,0,0,89.886,0l30.928,49.484a250,250,0,0,1-151.742,0ZM184,357.706V296h24V396.106ZM69.766,32H186.234L208,97.3v34.657a220.607,220.607,0,0,0-160,0V97.3ZM193.754,480H184V464H168v16H88V464H72v16H62.246l-10.96-43.839a265.712,265.712,0,0,0,153.428,0ZM468,368H448V348a20,20,0,1,1,20,20Z"/></g></svg>
